<svg xmlns="http://www.w3.org/2000/svg" xmlns:xlink="http://www.w3.org/1999/xlink" width="28" height="25" version="1.1" viewBox="0 0 28 25"><title>Group 5</title><desc>Created with Sketch.</desc><g id="Page-1" fill="none" fill-rule="evenodd" stroke="none" stroke-width="1"><g id="jazz-1.0-Createservice_2019-0412" transform="translate(-902.000000, -505.000000)"><g id="Group-5" transform="translate(902.000000, 505.000000)"><g id="aws-api-gateway" fill-rule="nonzero" opacity=".6" transform="translate(3.414634, 0.000000)"><polyline id="Path" fill="#634B1E" points="20.488 10.911 15.516 11.111 12.293 10.912 17.624 10.417 20.488 10.911"/><polyline id="Path" fill="#D9A740" points="17.951 10.835 20.488 11.111 20.488 5.548 17.951 4.167 17.756 4.396 17.756 10.598 17.951 10.835"/><polyline id="Path" fill="#886A2A" points="12.293 5.548 17.756 4.167 17.756 10.835 12.293 11.111 12.293 5.548"/><polyline id="Path" fill="#634B1E" points=".683 10.927 5.655 11.111 8.878 10.927 3.562 10.417 .683 10.927"/><polyline id="Path" fill="#886A2A" points="2.611 10.844 0 11.111 0 5.543 2.611 4.167 2.732 4.404 2.732 10.636 2.611 10.844"/><polyline id="Path" fill="#D9A740" points="8.195 5.548 2.732 4.167 2.732 10.835 8.195 11.111 8.195 5.548"/><g id="Group" transform="translate(12.975610, 13.888889)"><polyline id="Path" fill="#FAD791" points="8.133 .221 3.225 .01 .044 .221 5.283 .77 8.133 .221"/><polyline id="Path" fill="#D9A740" points="5.295 .515 8.133 .221 8.133 6.155 5.295 7.628 5.146 7.291 5.146 .818 5.295 .515"/><polyline id="Path" fill="#886A2A" points=".044 6.158 5.295 7.633 5.295 .515 .044 .221 .044 6.158"/></g><g id="Group" transform="translate(0.682927, 13.888889)"><polyline id="Path" fill="#FAD791" points="0 .221 4.945 .01 8.151 .221 2.825 .818 0 .221"/><polyline id="Path" fill="#886A2A" points="2.86 .515 0 .221 0 6.155 2.86 7.628 3.033 7.362 3.033 .818 2.86 .515"/><polyline id="Path" fill="#D9A740" points="8.151 6.158 2.86 7.633 2.86 .515 8.151 .221 8.151 6.158"/></g><g id="Group" transform="translate(4.780488, 0.000000)"><polyline id="Path" fill="#634B1E" points="3.197 8.599 5.847 8.133 11.137 8.884 11.593 9.147 9.023 9.43 3.197 8.599"/><polyline id="Path" fill="#634B1E" points="8.413 8.599 5.763 8.133 .245 8.992 .017 9.147 2.587 9.43 8.413 8.599"/><polyline id="Path" fill="#FAD791" points="3.197 16.524 5.847 16.99 11.124 16.25 11.593 15.976 9.023 15.694 3.197 16.524"/><polyline id="Path" fill="#FAD791" points="8.413 16.524 5.763 16.99 .205 16.196 .017 15.976 2.587 15.694 8.413 16.524"/><polyline id="Path" fill="#D9A740" points="11.593 9.147 11.593 6.261 8.883 5.372 8.883 1.595 5.805 .051 5.805 .051 5.677 .256 5.653 24.659 5.805 24.972 8.883 23.429 8.883 19.751 11.593 18.862 11.593 15.976 8.883 16.454 8.883 8.669 11.593 9.147"/><polyline id="Path" fill="#886A2A" points="2.727 1.595 2.727 5.372 .017 6.261 .017 9.147 2.727 8.669 2.727 16.454 .017 15.976 .017 18.862 2.727 19.751 2.727 23.429 5.805 24.972 5.805 .051 2.727 1.595"/></g></g><rect id="Rectangle" width="28" height="25" x="0" y="0" fill="#FFF" style="mix-blend-mode:color"/></g></g></g></svg>