<svg xmlns="http://www.w3.org/2000/svg" xmlns:xlink="http://www.w3.org/1999/xlink" width="62" height="62" version="1.1" viewBox="0 0 62 62"><title>server</title><desc>Created with Sketch.</desc><g id="Page-1" fill="none" fill-rule="evenodd" stroke="none" stroke-width="1"><g id="Artboard" transform="translate(-67.000000, -45.000000)"><g id="server" transform="translate(67.000000, 45.000000)"><g id="Group" fill="#407199"><path id="Shape-Copy" fill-rule="nonzero" d="M2,2 L2,20 L61.99904,20 L62.001853,2 L2,2 Z M17.00192,14.00096 L11.000072,14.00096 L11.000072,8.00192 L16.999112,8.00192 L17.00192,14.00096 Z M29,14.00096 L23.00096,14.00096 L23.00096,8.00192 L29,8.00192 L29,14.00096 Z"/><polygon id="Path-2" points="2 20 0 18 0 20" transform="translate(1.000000, 19.000000) scale(-1, -1) translate(-1.000000, -19.000000)"/><polygon id="Path-2" points="62 2 60 0 60 2"/></g><g id="Group" fill="#407199" transform="translate(0.000000, 24.000000)"><polygon id="Path-2" points="2 20 0 18 0 20" transform="translate(1.000000, 19.000000) scale(-1, -1) translate(-1.000000, -19.000000)"/><polygon id="Path-2" points="62 2 60 0 60 2"/><polygon id="Path-2" points="38 26 36 24 36 26"/><polygon id="Path-2-Copy" points="56 29 54 27 54 29"/><polygon id="Path-2-Copy-2" points="8 35 6 33 6 35" transform="translate(7.000000, 34.000000) scale(-1, -1) translate(-7.000000, -34.000000)"/><polygon id="Path-2-Copy-3" points="26 38 24 36 24 38" transform="translate(25.000000, 37.000000) scale(-1, -1) translate(-25.000000, -37.000000)"/></g><path id="Shape-Copy-2" fill="#407199" fill-rule="nonzero" d="M2,44 L29,44 L29,49.99904 L25.99904,49.99904 L25.99904,53 L8.00192,53 L8.00192,58.99904 L26.00192,58.99904 L26.00192,62 L38.00288,62 L38.00288,58.99904 L56.00288,58.99904 L56.00288,53 L38.00288,53 L38.00288,49.99904 L35.00192,49.99904 L35.00192,44 L62.00192,44 L62.00192,26 L2,26 L2,44 Z M23.00096,31.99904 L29,31.99904 L29,37.99808 L23.00096,37.99808 L23.00096,31.99904 Z M11,31.99904 L16.99904,31.99904 L16.99904,37.99808 L11,37.99808 L11,31.99904 Z"/><path id="Shape" fill="#679CC6" fill-rule="nonzero" d="M0,0 L0,18 L59.99904,18 L60.001853,0 L0,0 Z M15.00192,12.00096 L9.000072,12.00096 L9.000072,6.00192 L14.999112,6.00192 L15.00192,12.00096 Z M27,12.00096 L21.00096,12.00096 L21.00096,6.00192 L27,6.00192 L27,12.00096 Z"/><path id="Shape" fill="#679CC6" fill-rule="nonzero" d="M0,42 L27,42 L27,47.99904 L23.99904,47.99904 L23.99904,51 L6.00192,51 L6.00192,56.99904 L24.00192,56.99904 L24.00192,60 L36.00288,60 L36.00288,56.99904 L54.00288,56.99904 L54.00288,51 L36.00288,51 L36.00288,47.99904 L33.00192,47.99904 L33.00192,42 L60.00192,42 L60.00192,24 L0,24 L0,42 Z M21.00096,29.99904 L27,29.99904 L27,35.99808 L21.00096,35.99808 L21.00096,29.99904 Z M9,29.99904 L14.99904,29.99904 L14.99904,35.99808 L9,35.99808 L9,29.99904 Z"/></g></g></g></svg>