<svg xmlns="http://www.w3.org/2000/svg" xmlns:xlink="http://www.w3.org/1999/xlink" width="40" height="48" version="1.1" viewBox="0 0 40 48"><title>aws-s3</title><desc>Created with Sketch.</desc><g id="Create-Service" fill="none" fill-rule="evenodd" stroke="none" stroke-width="1"><g id="jazz_2019-0530_create-service-website-framework-1" fill-rule="nonzero" transform="translate(-1096.000000, -2299.000000)"><g id="Content" transform="translate(794.000000, 141.000000)"><g id="Sec-deets-Copy" transform="translate(0.000000, 1893.000000)"><g id="Type-of-service-Copy-4" transform="translate(0.000000, 215.000000)"><g id="runtime-copy" transform="translate(0.000000, 34.000000)"><g id="S3" transform="translate(282.000000, 0.000000)"><g id="aws-s3" transform="translate(20.000000, 16.000000)"><polyline id="Path" fill="#8C3123" points="2.982 8 0 9.535 0 36.474 2.982 38 3 37.978 3 8.021 2.982 8"/><polyline id="Path" fill="#E05243" points="20 34.09 3 38 3 8 20 11.825 20 34.09"/><polyline id="Path" fill="#8C3123" points="12 28.16 19.906 29 19.956 28.904 20 18.085 19.906 18 12 18.828 12 28.16"/><polyline id="Path" fill="#8C3123" points="20 34.127 36.973 38 37 37.96 37 8.027 36.973 8 20 11.868 20 34.127"/><polyline id="Path" fill="#E05243" points="28 28.16 20 29 20 18 28 18.828 28 28.16"/><polyline id="Path" fill="#5E1F18" points="29 13.768 21.499 15 14 13.768 21.49 12 29 13.768"/><polyline id="Path" fill="#F2B0A9" points="29 33.588 21.499 32 14 33.588 21.49 36 29 33.588"/><polyline id="Path" fill="#8C3123" points="12 14 19.936 12.19 20 12.172 20 .049 19.936 0 12 3.657 12 14"/><polyline id="Path" fill="#E05243" points="28 14 20 12.19 20 0 28 3.657 28 14"/><polyline id="Path" fill="#8C3123" points="19.884 48 12 44.344 12 34 19.884 35.809 20 35.932 19.969 47.789 19.884 48"/><path id="Shape" fill="#E05243" d="M20,48 L27.3164901,44.3392794 L27.3164901,33.9824354 L20,35.7939486 L20,48 M36.7761945,8 L40,9.61318829 L40,37.9260974 L36.7761945,39.5386601 L36.7761945,8"/></g></g></g></g></g></g></g></g></svg>