<svg xmlns="http://www.w3.org/2000/svg" xmlns:xlink="http://www.w3.org/1999/xlink" width="31" height="36" version="1.1" viewBox="0 0 31 36"><title>aws-api-gateway</title><desc>Created with Sketch.</desc><g id="2019-0306" fill="none" fill-rule="evenodd" stroke="none" stroke-width="1"><g id="1.3-Template-DeploymentTarget" fill-rule="nonzero" transform="translate(-755.000000, -219.000000)"><g id="Service-type-+-Dep-deets-+-Add-deets-+-Rectangle-Copy-+-Rectangle-+-Rectangle-Copy-2-+-Group-22-+-CANCEL-+-Scroll-+-Header1-Mask" transform="translate(434.000000, 56.000000)"><g id="Dep-deets" transform="translate(34.000000, -41.000000)"><g id="AWS-Gateway" transform="translate(262.000000, 189.000000)"><g id="aws-api-gateway" transform="translate(25.000000, 15.000000)"><polyline id="Path" fill="#634B1E" points="30 15.713 22.719 16 18 15.713 25.806 15 30 15.713"/><polyline id="Path" fill="#D9A740" points="26.285 15.603 30 16 30 7.989 26.285 6 26 6.33 26 15.262 26.285 15.603"/><polyline id="Path" fill="#886A2A" points="18 7.99 26 6 26 15.602 18 16 18 7.99"/><polyline id="Path" fill="#634B1E" points="1 15.734 8.281 16 13 15.735 5.216 15 1 15.734"/><polyline id="Path" fill="#886A2A" points="3.824 15.615 0 16 0 7.981 3.824 6 4 6.341 4 15.316 3.824 15.615"/><polyline id="Path" fill="#D9A740" points="12 7.99 4 6 4 15.602 12 16 12 7.99"/><g id="Group" transform="translate(19.000000, 20.000000)"><polyline id="Path" fill="#FAD791" points="11.909 .318 4.723 .014 .065 .318 7.736 1.109 11.909 .318"/><polyline id="Path" fill="#D9A740" points="7.753 .742 11.909 .318 11.909 8.863 7.753 10.984 7.535 10.499 7.535 1.178 7.753 .742"/><polyline id="Path" fill="#886A2A" points=".065 8.868 7.753 10.992 7.753 .742 .065 .318 .065 8.868"/></g><g id="Group" transform="translate(1.000000, 20.000000)"><polyline id="Path" fill="#FAD791" points="0 .318 7.241 .014 11.935 .318 4.137 1.178 0 .318"/><polyline id="Path" fill="#886A2A" points="4.188 .742 0 .318 0 8.863 4.188 10.984 4.442 10.602 4.442 1.178 4.188 .742"/><polyline id="Path" fill="#D9A740" points="11.935 8.868 4.188 10.992 4.188 .742 11.935 .318 11.935 8.868"/></g><g id="Group" transform="translate(7.000000, 0.000000)"><polyline id="Path" fill="#634B1E" points="4.681 12.383 8.561 11.711 16.308 12.794 16.975 13.172 13.212 13.579 4.681 12.383"/><polyline id="Path" fill="#634B1E" points="12.319 12.383 8.439 11.711 .359 12.948 .025 13.172 3.788 13.579 12.319 12.383"/><polyline id="Path" fill="#FAD791" points="4.681 23.795 8.561 24.466 16.288 23.4 16.975 23.005 13.212 22.599 4.681 23.795"/><polyline id="Path" fill="#FAD791" points="12.319 23.795 8.439 24.466 .3 23.323 .025 23.005 3.788 22.599 12.319 23.795"/><polyline id="Path" fill="#D9A740" points="16.975 13.172 16.975 9.016 13.007 7.736 13.007 2.297 8.5 .074 8.5 .074 8.312 .369 8.278 35.508 8.5 35.96 13.007 33.737 13.007 28.441 16.975 27.161 16.975 23.005 13.007 23.694 13.007 12.483 16.975 13.172"/><polyline id="Path" fill="#886A2A" points="3.993 2.297 3.993 7.736 .025 9.016 .025 13.172 3.993 12.483 3.993 23.694 .025 23.005 .025 27.161 3.993 28.441 3.993 33.737 8.5 35.96 8.5 .074 3.993 2.297"/></g></g></g></g></g></g></g></svg>