<svg xmlns="http://www.w3.org/2000/svg" xmlns:xlink="http://www.w3.org/1999/xlink" width="89" height="33" version="1.1" viewBox="0 0 89 33"><title>Jazz_text2</title><desc>Created with Sketch.</desc><g id="Page-1" fill="none" fill-rule="evenodd" stroke="none" stroke-width="1"><g id="Jazz_Rev3-Copy-3" fill-rule="nonzero" transform="translate(-35.000000, -11.000000)"><g id="Jazz_text2" transform="translate(35.000000, 11.000000)"><g id="Jazz_Logo"><polygon id="Shape" fill="#FFF" points="8.976 19.745 4.481 15.23 8.996 10.735 9.007 6.254 2.246 12.984 0 15.219 2.235 17.465 8.966 24.226"/><polygon id="Shape" fill="#FFF" points="38.225 10.762 42.678 15.312 38.129 19.769 38.084 24.25 44.897 17.578 47.163 15.36 44.945 13.094 38.269 6.281"/><path id="Shape" fill="#E20074" d="M39.7709016,2.33139768 C39.7709016,2.33139768 34.4429722,0.500564796 31.8064357,5.31078678 C29.4853236,9.54158786 27.9356299,14.2729537 25.9470848,18.6751811 C23.8248272,23.3756903 20.6191554,33.1469894 14.3415243,32.570997 C12.8364013,32.4372845 7.94389474,30.2978843 7.48447226,28.6624774 C8.79214835,29.1201274 10.1549848,29.4014574 11.53699,29.4990377 C17.4203406,29.7527486 19.7414527,22.0042799 21.822568,17.5814813 C23.3379765,14.3632383 24.7996714,11.117567 26.2076527,7.84446749 C27.428208,5.08793258 28.4053379,1.82740436 31.4155837,0.730276038 C34.2441177,-0.294853236 37.3195055,0.877702656 39.7709016,2.33139768 Z"/><rect id="Rectangle-path" width="1.43" height="1.43" x="17.694" y="17.606" fill="#FFF" transform="translate(18.408485, 18.320940) rotate(-66.100000) translate(-18.408485, -18.320940)"/><rect id="Rectangle-path" width="1.43" height="1.43" x="19.316" y="13.949" fill="#FFF" transform="translate(20.030600, 14.663635) rotate(-66.100000) translate(-20.030600, -14.663635)"/><rect id="Rectangle-path" width="1.43" height="1.43" x="20.935" y="10.287" fill="#FFF" transform="translate(21.649580, 11.001512) rotate(-66.100000) translate(-21.649580, -11.001512)"/></g><g id="Group-45" fill="#FFF" transform="translate(55.691406, 11.152344)"><path id="Shape" d="M0.000473377155,8.15024869 L1.28495538,6.72153459 C1.81289925,7.30390567 2.32995769,7.64951841 2.97764141,7.64951841 C3.74506498,7.64951841 4.22130301,7.18688718 4.22402437,6.11467127 L4.22402437,0.146728412 L6.31402898,0.146728412 L6.31402898,6.20719752 C6.31402898,7.29574159 5.99290848,8.11214964 5.43775101,8.68091392 C4.88259353,9.2496782 4.03352916,9.53814237 3.02934725,9.53814237 C1.85954978,9.56816416 0.741540138,9.05586863 0.000473377155,8.15024869 Z"/><path id="Shape" d="M10.1783604,0.0923012086 L12.056099,0.0923012086 L16.015678,9.42656661 L13.8794103,9.42656661 L13.0357886,7.34744743 L9.11975132,7.34744743 L8.27068695,9.42384525 L6.19701049,9.42384525 L10.1783604,0.0923012086 Z M12.3146282,5.53502156 L11.0872947,2.54152537 L9.85179721,5.53502156 L12.3146282,5.53502156 Z"/><polygon id="Shape" points="16.378 7.881 21.477 1.967 16.541 1.967 16.541 .182 24.098 .182 24.098 1.731 18.996 7.647 24.09 7.647 24.09 9.432 16.375 9.432"/><polygon id="Shape" points="24.819 7.892 29.935 1.967 24.999 1.967 24.999 .182 32.556 .182 32.556 1.731 27.44 7.655 32.534 7.655 32.534 9.44 24.819 9.44"/></g></g></g></g></svg>