<svg xmlns="http://www.w3.org/2000/svg" xmlns:xlink="http://www.w3.org/1999/xlink" width="324" height="127" version="1.1" viewBox="0 0 324 127"><title>Ci-CD</title><desc>Created with Sketch.</desc><g id="Final-Screens" fill="none" fill-rule="evenodd" stroke="none" stroke-linecap="round" stroke-linejoin="round" stroke-width="1"><g id="Ci-CD" stroke-width="2" transform="translate(1.000000, 0.000000)"><rect id="Rectangle-path" width="73.18" height="55.12" x="242.58" y="69.89" stroke="#F01F86"/><polygon id="Shape" stroke="#F01F86" points="242.58 69.89 260.23 58.43 299.79 58.43 315.76 69.89"/><polyline id="Shape" stroke="#F01F86" points="272.66 58.43 237.32 25.35 321.86 25.35 286.88 58.43"/><path id="Shape" stroke="#F01F86" d="M279.58,58.43 L279.17,25.35"/><path id="Shape" stroke="#F01F86" d="M237.32,25.35 C237.32,25.35 249.87,1.6 279.17,1 C308.47,0.4 321.86,25.34 321.86,25.34"/><path id="Shape" stroke="#F01F86" d="M260.67,25.35 C260.67,25.35 263.53,1 279.17,1 C294.81,1 298.52,25.34 298.52,25.34"/><rect id="Rectangle-path" width="11.72" height="23.56" x="273.22" y="58.43" stroke="#555"/><rect id="Rectangle-path" width="163.3" height="5.14" x="0" y="116.07" stroke="#F01F86"/><path id="Shape" stroke="#F01F86" d="M0,121.2 C0,121.2 1,125 3.92,125 L158.92,125 C158.92,125 162.92,123.41 163.3,121.2 L0,121.2 Z"/><rect id="Rectangle-path" width="120.84" height="69.35" x="21.25" y="41.07" stroke="#F01F86"/><path id="Shape" stroke="#F01F86" d="M15.07,115 L15.07,38.69 C15.07,38.69 15.47,33.17 20.6,33.17 L141,33.17 C141,33.17 147.8,33.12 147.8,39.17 L147.8,116.04 L15.07,116.04 L15.07,115 Z"/><polyline id="Shape" stroke="#555" points="67.11 94.3 49.29 76.48 68.59 57.18"/><polyline id="Shape" stroke="#555" points="96.23 57.18 114.06 75 94.76 94.3"/><path id="Shape" stroke="#555" d="M88.49,57.18 L74.75,94.3"/><rect id="Rectangle-path" width="20.62" height="20.62" x="201.31" y="44.03" stroke="#F01F86" transform="translate(211.620000, 54.340000) rotate(90.000000) translate(-211.620000, -54.340000)"/><rect id="Rectangle-path" width="13.18" height="13.18" x="160.44" y="71.38" stroke="#F01F86" transform="translate(167.030000, 77.970000) rotate(90.000000) translate(-167.030000, -77.970000)"/><rect id="Rectangle-path" width="18.3" height="18.3" x="187.07" y="84.57" stroke="#F01F86" transform="translate(196.220000, 93.720000) rotate(90.000000) translate(-196.220000, -93.720000)"/><rect id="Rectangle-path" width="9.15" height="9.15" x="221.87" y="75.87" stroke="#F01F86" transform="translate(226.445000, 80.445000) rotate(90.000000) translate(-226.445000, -80.445000)"/><rect id="Rectangle-path" width="9.15" height="9.15" x="178.71" y="54.89" stroke="#F01F86" transform="translate(183.285000, 59.465000) rotate(90.000000) translate(-183.285000, -59.465000)"/><path id="Shape" stroke="#555" d="M195.02,42.24 L171.75,42.24"/><path id="Shape" stroke="#555" d="M180.23,95.58 L170.92,95.58"/><path id="Shape" stroke="#555" d="M164.38,95.58 L160.44,95.58"/><path id="Shape" stroke="#555" d="M164.77,42.24 L160.63,42.24"/><path id="Shape" stroke="#555" d="M210.76,73.06 L192.12,73.06"/><path id="Shape" stroke="#555" d="M230.73,32.92 L207.55,32.92"/><path id="Shape" stroke="#555" d="M222.91,107.15 L212.37,107.15"/></g></g></svg>