<svg xmlns="http://www.w3.org/2000/svg" xmlns:xlink="http://www.w3.org/1999/xlink" width="218" height="176" version="1.1" viewBox="0 0 218 176"><title>Code-Secure</title><desc>Created with Sketch.</desc><g id="Final-Screens" fill="none" fill-rule="evenodd" stroke="none" stroke-linecap="round" stroke-linejoin="round" stroke-width="1"><g id="Code-Secure" stroke-width="2" transform="translate(1.000000, 1.000000)"><path id="Shape" stroke="#F01F86" d="M188.17,24.53 C189.91,24.72 185.05,57.67 184.38,60.96 C181.831748,73.7329419 177.710337,86.1408396 172.11,97.9 C160.59,121.85 141.85,144.1 118.79,157.65"/><path id="Shape" stroke="#F01F86" d="M118.79,157.65 C71.61,129.93 50.23,77.26 49.41,24.53"/><polyline id="Shape" stroke="#F01F86" points="49.41 24.53 118.48 0 118.48 39.49"/><path id="Shape" stroke="#F01F86" d="M118.48,97.52 L118.48,157.65"/><path id="Shape" stroke="#F01F86" d="M118.79,18.97 L186.44,45.45"/><path id="Shape" stroke="#F01F86" d="M128.53,53.82 L181.07,74.39"/><path id="Shape" stroke="#F01F86" d="M138.2,89.42 L170.1,101.91"/><path id="Shape" stroke="#F01F86" d="M118.79,108.96 L156.33,123.65"/><path id="Shape" stroke="#F01F86" d="M118.79,134.68 L138.87,142.54"/><path id="Shape" stroke="#F01F86" d="M118.29,18.97 L51.67,45.05"/><path id="Shape" stroke="#F01F86" d="M106.61,54.58 L57.11,73.95"/><path id="Shape" stroke="#F01F86" d="M98.33,89.64 L67.56,101.68"/><path id="Shape" stroke="#F01F86" d="M118.29,108.96 L81.04,123.54"/><path id="Shape" stroke="#F01F86" d="M118.29,134.68 L98.21,142.54"/><path id="Shape" stroke="#F01F86" d="M188.17,24.53 L118.48,0"/><rect id="Rectangle-path" width="39.11" height="31.91" x="98.68" y="65.61" stroke="#555"/><path id="Shape" stroke="#555" d="M107.32,65.61 L107.32,56.74 C107.32,52.13 106.87,47.56 110.32,43.98 C112.749563,41.4367742 116.239892,40.194202 119.73,40.63 C123.231007,41.1117948 126.226324,43.3867196 127.63,46.63 C128.63,49.1 128.51,53.87 128.51,57.63 C128.51,58.24 128.58,65.63 128.51,65.63 L121.25,65.63 C121.25,65.63 121.2,53.21 121.2,52.38 C121.224955,51.9113135 121.156984,51.4423185 121,51 C120.844843,50.6257206 120.617133,50.2858557 120.33,50 C119.836354,49.2618737 119.034601,48.7874416 118.15,48.71 C117.282371,48.855983 116.510586,49.3464636 116.01,50.07 C115.73,50.41 115.28,50.77 115.17,51.2 C115.111597,51.4725837 115.088075,51.751485 115.1,52.03 C115.1,56.11 115.1,61.48 115.1,65.56 L107.32,65.61 Z"/><path id="Shape" stroke="#555" d="M31.52,73.05 L31.49,82.53"/><path id="Shape" stroke="#555" d="M26.76,77.78 L36.25,77.8"/><path id="Shape" stroke="#555" d="M70.42,148.49 L70.39,160.32"/><path id="Shape" stroke="#555" d="M64.49,154.39 L76.32,154.42"/><path id="Shape" stroke="#555" d="M27.96,37.21 L27.92,50.43"/><path id="Shape" stroke="#555" d="M21.33,43.81 L34.55,43.84"/><circle id="Oval" cx="6.01" cy="62.33" r="6.01" stroke="#555"/><path id="Shape" stroke="#555" d="M170.48,147.43 L162.28,147.41"/><path id="Shape" stroke="#555" d="M166.39,143.32 L166.37,151.52"/><path id="Shape" stroke="#555" d="M213.93,162.56 L191.35,162.5"/><path id="Shape" stroke="#555" d="M202.67,151.24 L202.61,173.82"/><path id="Shape" stroke="#555" d="M206.96,108.31 L193.74,108.27"/><path id="Shape" stroke="#555" d="M200.37,101.68 L200.33,114.9"/><circle id="Oval" cx="180.49" cy="126.2" r="3.27" stroke="#555"/><circle id="Oval" cx="33.01" cy="19.16" r="3.64" stroke="#555"/><circle id="Oval" cx="208.87" cy="136.31" r="6.23" stroke="#555"/><polyline id="Shape" stroke="#555" points="113.18 87.75 106.77 81.33 113.71 74.39"/><polyline id="Shape" stroke="#555" points="123.66 74.39 130.08 80.8 123.13 87.75"/></g></g></svg>